# xmcd CD database file generated by Grip 3.2.0
# 
# Track frame offsets:
#       150
#       13075
#       27212
#       41378
#       55498
#       70818
#       78665
#       89753
#       102723
#       120755
#       133321
#       148607
#       163558
#       179019
#       193960
#       208334
#       221996
#       240100
# 
# Disc length: 3386 seconds
# 
# Revision: 1
# Processed by: cddbd v1.5.1PL2 Copyright (c) Steve Scherf et al.
# Submitted via: Grip 3.2.0
# 
DISCID=140d3812
DTITLE=Various Artist - The greatest Era in Jazz from Swing to Bebop CD10
DYEAR=1900
DGENRE=Jazz
TTITLE0=Dinah Washington - All Or Nothing Blues
TTITLE1=Louis Armstrong - Jazz Lips
TTITLE2=Nat King Cole - Are You Fer It?
TTITLE3=Count Basie - Fiesta In Blue
TTITLE4=Kid Ory - Flat Foot
TTITLE5=Perry Como - Faithful Forever
TTITLE6=Original Dixieland Jazz Band - Clarinet Marmalade
TTITLE7=Ivie Anderson - Chocolate Shake
TTITLE8=Sidney Bechet - Dear Old Southland
TTITLE9=Ella Fitzgerald - Can't Help Lovin' Dat Man
TTITLE10=Rod Mason and Ian Wheeler Band - Jamaica March
TTITLE11=Gene Krupa - Massachusetts
TTITLE12=Glen Gray And The Casa Loma Orchestra - Git Away Day
TTITLE13=Anita O'Day - Deep In The Blues
TTITLE14=Dizzy Gillespie - Dizzy Boogie
TTITLE15=Harry James - Feet Draggin' Blues
TTITLE16=Fats Waller - Ain't Misbehavin'
TTITLE17=Jack Teagarden - A Hundred Years From Today
EXTD=
EXTT0=
EXTT1=
EXTT2=
EXTT3=
EXTT4=
EXTT5=
EXTT6=
EXTT7=
EXTT8=
EXTT9=
EXTT10=
EXTT11=
EXTT12=
EXTT13=
EXTT14=
EXTT15=
EXTT16=
EXTT17=
PLAYORDER=
